<?xml version="1.0" encoding="UTF-8"?><svg xmlns="http://www.w3.org/2000/svg" viewBox="0 0 2551.36 2547.56"><g id="a"><rect x="28.76" y="46.14" width="2482.36" height="2482.36" rx="370.12" ry="370.12" style="stroke:#00ff04; stroke-miterlimit:10;"/></g><g id="b"><rect x="211.76" y="229.32" width="1029.21" height="1029.21" rx="319.77" ry="319.77" style="fill:#f60; stroke:#00ff04; stroke-miterlimit:10;"/></g><g id="c"><rect x="1299.91" y="203.71" width="1029.21" height="1029.21" rx="319.77" ry="319.77" style="fill:red; stroke:#00ff04; stroke-miterlimit:10;"/></g><g id="d"><rect x="1320.21" y="1326.32" width="1029.21" height="1029.21" rx="319.77" ry="319.77" style="fill:#0c0; stroke:#00ff04; stroke-miterlimit:10;"/></g><g id="e"><rect x="211.76" y="1326.32" width="1029.21" height="1029.21" rx="319.77" ry="319.77" style="fill:#30f; stroke:#00ff04; stroke-miterlimit:10;"/></g><g id="f"><rect x="255.13" y="271.01" width="2021.41" height="2021.41" rx="395.98" ry="395.98" transform="translate(1277.07 -519.67) rotate(45)" style="fill:#3f48ff; stroke:#00ff04; stroke-miterlimit:10;"/></g><g id="g"><g><path d="M828.77,1742.59h-283.78c-40.97,0-70.2-9.17-87.73-27.53s-26.28-47.58-26.28-87.67V929.8c0-40.92,8.97-70.36,26.92-88.3,17.94-17.94,46.97-26.91,87.09-26.91h300.89c44.34,0,82.77,2.75,115.28,8.22,32.52,5.48,61.66,16.02,87.42,31.61,21.88,13.09,41.23,29.66,58.06,49.7s29.66,42.2,38.5,66.47c8.84,24.28,13.27,49.92,13.27,76.92,0,92.86-46.3,160.81-138.86,203.86,121.61,38.83,182.42,114.38,182.42,226.64,0,51.91-13.27,98.66-39.77,140.22-26.52,41.58-62.28,72.28-107.31,92.11-28.3,11.81-60.81,20.14-97.55,24.98-36.75,4.84-79.61,7.27-128.58,7.27Zm-209.8-787v240h172.41c46.91,0,83.14-4.42,108.7-13.3,25.56-8.86,45.11-25.75,58.64-50.66,10.61-17.72,15.92-37.56,15.92-59.53,0-46.84-16.7-77.98-50.09-93.39s-84.31-23.12-152.78-23.12h-152.8Zm195.86,375h-195.86v271h202.2c127.19,0,190.8-45.8,190.8-137.41,0-46.84-16.48-80.83-49.45-101.94-32.97-21.09-82.19-31.66-147.69-31.66Z" style="fill:#fff;"/><path d="M2154.71,1449.8c0,29.53-7.28,61.5-21.84,95.88s-37.44,68.12-68.66,101.23c-31.22,33.12-71.09,60.02-119.61,80.69-48.52,20.66-105.05,31-169.58,31-48.94,0-93.45-4.64-133.53-13.89s-76.45-23.67-109.11-43.25c-32.67-19.56-62.69-45.34-90.03-77.34-24.41-29.14-45.25-61.77-62.5-97.88s-30.19-74.66-38.81-115.62-12.94-84.47-12.94-130.52c0-74.75,10.83-141.7,32.5-200.83s52.7-109.7,93.11-151.73,87.81-74.02,142.23-95.98c54.41-21.97,112.42-32.95,174.02-32.95,75.09,0,141.95,14.98,200.59,44.94,58.64,29.97,103.58,67,134.8,111.09s46.83,85.77,46.83,125c0,21.53-7.59,40.52-22.78,56.97-15.19,16.47-33.55,24.69-55.06,24.69-24.05,0-42.08-5.7-54.11-17.11s-25.42-31.08-40.17-58.98c-24.47-46.06-53.27-80.52-86.39-103.34s-73.94-34.25-122.44-34.25c-77.22,0-138.7,29.39-184.47,88.14-45.78,58.77-68.66,142.25-68.66,250.47,0,72.3,10.12,132.44,30.38,180.41,20.25,47.98,48.94,83.81,86.06,107.48s80.58,35.5,130.36,35.5c54,0,99.66-13.42,137-40.27,37.33-26.84,65.48-66.27,84.48-118.27,8-24.52,17.92-44.48,29.73-59.92,11.81-15.42,30.8-23.14,56.95-23.14,22.36,0,41.56,7.83,57.59,23.47s24.05,35.08,24.05,58.33Z" style="fill:#fff;"/></g></g></svg>